<svg width="18" height="18" viewBox="0 0 18 18" fill="none" xmlns="http://www.w3.org/2000/svg">
<path d="M16.5937 6.0089C16.4884 5.88865 16.3587 5.79221 16.2132 5.72601C16.0677 5.65981 15.9098 5.62538 15.75 5.625H13.1927L9.42186 1.31695C9.36907 1.2571 9.30415 1.20916 9.23142 1.17633C9.15868 1.14349 9.07979 1.12651 8.99998 1.12651C8.92018 1.12651 8.84129 1.14349 8.76855 1.17633C8.69581 1.20916 8.63089 1.2571 8.57811 1.31695L4.80725 5.625H2.24998C2.08972 5.625 1.9313 5.65925 1.78534 5.72544C1.63939 5.79163 1.50926 5.88825 1.40367 6.00882C1.29808 6.12938 1.21947 6.27112 1.17311 6.42453C1.12674 6.57794 1.11369 6.73949 1.13483 6.89836L2.10936 14.2116C2.14549 14.4818 2.27855 14.7298 2.48381 14.9093C2.68906 15.0888 2.95253 15.1877 3.22522 15.1875H14.7747C15.0474 15.1877 15.3109 15.0888 15.5162 14.9093C15.7214 14.7298 15.8545 14.4818 15.8906 14.2116L16.8658 6.89906C16.8866 6.73986 16.8731 6.57806 16.8262 6.42452C16.7792 6.27098 16.7 6.12927 16.5937 6.0089ZM5.73748 12.9375C5.71851 12.9385 5.6995 12.9385 5.68053 12.9375C5.5406 12.9382 5.40543 12.8867 5.30142 12.7931C5.19741 12.6995 5.13202 12.5705 5.11803 12.4312L4.72428 8.49375C4.70936 8.34531 4.75402 8.19703 4.84843 8.08152C4.94285 7.966 5.07928 7.89273 5.22772 7.87781C5.37615 7.86289 5.52444 7.90755 5.63995 8.00197C5.75546 8.09638 5.82874 8.23281 5.84365 8.38125L6.2374 12.3187C6.25316 12.4671 6.20934 12.6156 6.11558 12.7317C6.02183 12.8477 5.88582 12.9217 5.73748 12.9375ZM9.56248 12.375C9.56248 12.5242 9.50322 12.6673 9.39773 12.7727C9.29224 12.8782 9.14917 12.9375 8.99998 12.9375C8.8508 12.9375 8.70772 12.8782 8.60223 12.7727C8.49675 12.6673 8.43748 12.5242 8.43748 12.375V8.4375C8.43748 8.28831 8.49675 8.14524 8.60223 8.03975C8.70772 7.93426 8.8508 7.875 8.99998 7.875C9.14917 7.875 9.29224 7.93426 9.39773 8.03975C9.50322 8.14524 9.56248 8.28831 9.56248 8.4375V12.375ZM6.30209 5.625L8.99998 2.5418L11.6979 5.625H6.30209ZM13.2722 8.49375L12.8784 12.4312C12.8645 12.5699 12.7996 12.6984 12.6963 12.7919C12.5931 12.8855 12.4588 12.9373 12.3194 12.9375C12.3005 12.9385 12.2815 12.9385 12.2625 12.9375C12.189 12.9301 12.1177 12.9083 12.0526 12.8734C11.9875 12.8384 11.9299 12.791 11.8832 12.7338C11.8364 12.6766 11.8014 12.6108 11.7801 12.54C11.7588 12.4693 11.7517 12.3951 11.759 12.3216L12.1528 8.38406C12.1677 8.23562 12.241 8.09919 12.3565 8.00478C12.472 7.91036 12.6203 7.86571 12.7687 7.88062C12.9172 7.89554 13.0536 7.96882 13.148 8.08433C13.2424 8.19984 13.2871 8.34812 13.2722 8.49656V8.49375Z" fill="white"/>
</svg>
