<svg width="32" height="32" viewBox="0 0 32 32" fill="none" xmlns="http://www.w3.org/2000/svg">
<path d="M25.4 28.8L21.5 24.9333L18.5667 27.8667L17.6334 26.9333C17.1222 26.4222 16.8667 25.7889 16.8667 25.0333C16.8667 24.2778 17.1222 23.6444 17.6334 23.1333L23.2667 17.5C23.7778 16.9889 24.4111 16.7333 25.1667 16.7333C25.9222 16.7333 26.5556 16.9889 27.0667 17.5L28 18.4333L25.0667 21.3667L28.9334 25.2667C29.2 25.5333 29.3334 25.8444 29.3334 26.2C29.3334 26.5556 29.2 26.8667 28.9334 27.1333L27.2667 28.8C27 29.0667 26.6889 29.2 26.3334 29.2C25.9778 29.2 25.6667 29.0667 25.4 28.8ZM29.3334 7.86667L14.2 23L14.3667 23.1333C14.8778 23.6444 15.1334 24.2778 15.1334 25.0333C15.1334 25.7889 14.8778 26.4222 14.3667 26.9333L13.4334 27.8667L10.5 24.9333L6.60002 28.8C6.33335 29.0667 6.02224 29.2 5.66669 29.2C5.31113 29.2 5.00002 29.0667 4.73335 28.8L3.06669 27.1333C2.80002 26.8667 2.66669 26.5556 2.66669 26.2C2.66669 25.8444 2.80002 25.5333 3.06669 25.2667L6.93335 21.3667L4.00002 18.4333L4.93335 17.5C5.44446 16.9889 6.0778 16.7333 6.83335 16.7333C7.58891 16.7333 8.22224 16.9889 8.73335 17.5L8.86669 17.6667L24 2.53333H29.3334V7.86667ZM9.26669 14.4667L2.66669 7.86667V2.53333H8.00002L14.6 9.13333L9.26669 14.4667Z" fill="white"/>
</svg>
