<svg width="100" height="93" viewBox="0 0 100 93" fill="none" xmlns="http://www.w3.org/2000/svg">
<path d="M0 16C0 7.16345 7.16344 0 16 0H100V77C100 85.8366 92.8366 93 84 93H16C7.16345 93 0 85.8366 0 77V16Z" fill="url(#paint0_linear_74_12)"/>
<path d="M40.7213 32H50.1613V60H40.7213V32ZM32.0013 60H22.5613V32H32.0013V60ZM41.3613 49.68H31.3613V41.92H41.3613V49.68ZM65.1497 60.64C62.803 60.64 60.5364 60.3733 58.3497 59.84C56.163 59.3067 54.363 58.6133 52.9497 57.76L55.9897 50.88C57.323 51.6533 58.803 52.28 60.4297 52.76C62.083 53.2133 63.683 53.44 65.2297 53.44C66.1364 53.44 66.843 53.3867 67.3497 53.28C67.883 53.1467 68.2697 52.9733 68.5097 52.76C68.7497 52.52 68.8697 52.24 68.8697 51.92C68.8697 51.4133 68.5897 51.0133 68.0297 50.72C67.4697 50.4267 66.723 50.1867 65.7897 50C64.883 49.7867 63.883 49.5733 62.7897 49.36C61.6964 49.12 60.5897 48.8133 59.4697 48.44C58.3764 48.0667 57.363 47.5733 56.4297 46.96C55.523 46.3467 54.7897 45.5467 54.2297 44.56C53.6697 43.5467 53.3897 42.2933 53.3897 40.8C53.3897 39.0667 53.8697 37.4933 54.8297 36.08C55.8164 34.64 57.2697 33.4933 59.1897 32.64C61.1364 31.7867 63.5497 31.36 66.4297 31.36C68.323 31.36 70.1897 31.56 72.0297 31.96C73.8697 32.36 75.523 32.9733 76.9897 33.8L74.1497 40.64C72.763 39.9467 71.4164 39.4267 70.1097 39.08C68.8297 38.7333 67.5764 38.56 66.3497 38.56C65.443 38.56 64.723 38.64 64.1897 38.8C63.6564 38.96 63.2697 39.1733 63.0297 39.44C62.8164 39.7067 62.7097 40 62.7097 40.32C62.7097 40.8 62.9897 41.1867 63.5497 41.48C64.1097 41.7467 64.843 41.9733 65.7497 42.16C66.683 42.3467 67.6964 42.5467 68.7897 42.76C69.9097 42.9733 71.0164 43.2667 72.1097 43.64C73.203 44.0133 74.203 44.5067 75.1097 45.12C76.043 45.7333 76.7897 46.5333 77.3497 47.52C77.9097 48.5067 78.1897 49.7333 78.1897 51.2C78.1897 52.9067 77.6964 54.48 76.7097 55.92C75.7497 57.3333 74.3097 58.48 72.3897 59.36C70.4697 60.2133 68.0564 60.64 65.1497 60.64Z" fill="white"/>
<defs>
<linearGradient id="paint0_linear_74_12" x1="100" y1="0" x2="1.25647e-06" y2="93" gradientUnits="userSpaceOnUse">
<stop stop-color="#FA0055"/>
<stop offset="1" stop-color="#FEA082"/>
</linearGradient>
</defs>
</svg>
