<svg width="22" height="22" viewBox="0 0 22 22" fill="none" xmlns="http://www.w3.org/2000/svg">
<path d="M10.6667 0C12.0812 0 13.4377 0.561903 14.4379 1.5621C15.4381 2.56229 16 3.91885 16 5.33333C16 6.74782 15.4381 8.10438 14.4379 9.10457C13.4377 10.1048 12.0812 10.6667 10.6667 10.6667C9.25218 10.6667 7.89562 10.1048 6.89543 9.10457C5.89524 8.10438 5.33333 6.74782 5.33333 5.33333C5.33333 3.91885 5.89524 2.56229 6.89543 1.5621C7.89562 0.561903 9.25218 0 10.6667 0ZM10.6667 13.3333C16.56 13.3333 21.3333 15.72 21.3333 18.6667V21.3333H0V18.6667C0 15.72 4.77333 13.3333 10.6667 13.3333Z" fill="white"/>
</svg>
