<svg width="19" height="19" viewBox="0 0 19 19" fill="none" xmlns="http://www.w3.org/2000/svg">
<path d="M15.6653 18.0507L9.68896 12.0744L3.71266 18.0507C3.39565 18.3677 2.9657 18.5458 2.51739 18.5458C2.06908 18.5458 1.63914 18.3677 1.32213 18.0507C1.00513 17.7337 0.827039 17.3038 0.827039 16.8555C0.827039 16.4072 1.00513 15.9772 1.32213 15.6602L7.29844 9.68389L1.32213 3.70758C1.00513 3.39058 0.827039 2.96063 0.827039 2.51232C0.827039 2.06401 1.00513 1.63406 1.32213 1.31706C1.63914 1.00006 2.06908 0.821965 2.51739 0.821965C2.9657 0.821965 3.39565 1.00006 3.71266 1.31706L9.68896 7.29337L15.6653 1.31706C15.9823 1.00006 16.4122 0.821964 16.8605 0.821964C17.3088 0.821964 17.7388 1.00006 18.0558 1.31706C18.3728 1.63406 18.5509 2.06401 18.5509 2.51232C18.5509 2.96063 18.3728 3.39058 18.0558 3.70758L12.0795 9.68389L18.0558 15.6602C18.3728 15.9772 18.5509 16.4072 18.5509 16.8555C18.5509 17.3038 18.3728 17.7337 18.0558 18.0507C17.7388 18.3677 17.3088 18.5458 16.8605 18.5458C16.4122 18.5458 15.9823 18.3677 15.6653 18.0507Z" fill="#545454"/>
</svg>
