<svg width="73" height="73" viewBox="0 0 73 73" fill="none" xmlns="http://www.w3.org/2000/svg">
<rect width="73" height="73" rx="8" fill="#09090B"/>
<path d="M46.4 48.8L42.5 44.9333L39.5667 47.8667L38.6333 46.9333C38.1222 46.4222 37.8667 45.7889 37.8667 45.0333C37.8667 44.2778 38.1222 43.6444 38.6333 43.1333L44.2667 37.5C44.7778 36.9889 45.4111 36.7333 46.1667 36.7333C46.9222 36.7333 47.5556 36.9889 48.0667 37.5L49 38.4333L46.0667 41.3667L49.9333 45.2667C50.2 45.5333 50.3333 45.8444 50.3333 46.2C50.3333 46.5555 50.2 46.8667 49.9333 47.1333L48.2667 48.8C48 49.0667 47.6889 49.2 47.3333 49.2C46.9778 49.2 46.6667 49.0667 46.4 48.8ZM50.3333 27.8667L35.2 43L35.3667 43.1333C35.8778 43.6444 36.1333 44.2778 36.1333 45.0333C36.1333 45.7889 35.8778 46.4222 35.3667 46.9333L34.4333 47.8667L31.5 44.9333L27.6 48.8C27.3333 49.0667 27.0222 49.2 26.6667 49.2C26.3111 49.2 26 49.0667 25.7333 48.8L24.0667 47.1333C23.8 46.8667 23.6667 46.5555 23.6667 46.2C23.6667 45.8444 23.8 45.5333 24.0667 45.2667L27.9333 41.3667L25 38.4333L25.9333 37.5C26.4444 36.9889 27.0778 36.7333 27.8333 36.7333C28.5889 36.7333 29.2222 36.9889 29.7333 37.5L29.8667 37.6667L45 22.5333H50.3333V27.8667ZM30.2667 34.4667L23.6667 27.8667V22.5333H29L35.6 29.1333L30.2667 34.4667Z" fill="white"/>
</svg>
