<svg width="28" height="28" viewBox="0 0 28 28" fill="none" xmlns="http://www.w3.org/2000/svg">
<path d="M23.4 26.8L19.5 22.9333L16.5667 25.8667L15.6333 24.9333C15.1222 24.4222 14.8667 23.7889 14.8667 23.0333C14.8667 22.2778 15.1222 21.6444 15.6333 21.1333L21.2667 15.5C21.7778 14.9889 22.4111 14.7333 23.1667 14.7333C23.9222 14.7333 24.5555 14.9889 25.0667 15.5L26 16.4333L23.0667 19.3667L26.9333 23.2667C27.2 23.5333 27.3333 23.8444 27.3333 24.2C27.3333 24.5555 27.2 24.8667 26.9333 25.1333L25.2667 26.8C25 27.0667 24.6889 27.2 24.3333 27.2C23.9778 27.2 23.6667 27.0667 23.4 26.8ZM27.3333 5.86666L12.2 21L12.3667 21.1333C12.8778 21.6444 13.1333 22.2778 13.1333 23.0333C13.1333 23.7889 12.8778 24.4222 12.3667 24.9333L11.4333 25.8667L8.49999 22.9333L4.59999 26.8C4.33332 27.0667 4.02221 27.2 3.66666 27.2C3.3111 27.2 2.99999 27.0667 2.73332 26.8L1.06666 25.1333C0.79999 24.8667 0.666656 24.5555 0.666656 24.2C0.666656 23.8444 0.79999 23.5333 1.06666 23.2667L4.93332 19.3667L1.99999 16.4333L2.93332 15.5C3.44443 14.9889 4.07777 14.7333 4.83332 14.7333C5.58888 14.7333 6.22221 14.9889 6.73332 15.5L6.86666 15.6667L22 0.533325H27.3333V5.86666ZM7.26666 12.4667L0.666656 5.86666V0.533325H5.99999L12.6 7.13333L7.26666 12.4667Z" fill="white"/>
</svg>
